<?xml version="1.0" encoding="UTF-8"?>
      <svg
	   width="100px" height="100px" version="1.1" xmlns="http://www.w3.org/2000/svg" xmlns:xlink="http://www.w3.org/1999/xlink"
        fill="none"
        viewBox="0 0 24 24"
      >
    <rect x="0" y="0" width="24" height="24" rx="2" ry="2" fill="white"/>
        <path
          stroke="black"
          strokeLinecap="round"
          strokeLinejoin="round"
          strokeWidth="2"
          d="M4 16l4.586-4.586a2 2 0 012.828 0L16 16m-2-2l1.586-1.586a2 2 0 012.828 0L20 14m-6-6h.01M6 20h12a2 2 0 002-2V6a2 2 0 00-2-2H6a2 2 0 00-2 2v12a2 2 0 002 2z"
        />
      
	  
	  </svg>
