<?xml version="1.0" encoding="UTF-8"?>
      <svg
	   width="100px" height="100px" version="1.1" xmlns="http://www.w3.org/2000/svg" xmlns:xlink="http://www.w3.org/1999/xlink"
        fill="none"
        viewBox="0 0 24 24"
      >
    <rect x="0" y="0" width="24" height="24" rx="2" ry="2" fill="white"/>
        <path
          strokeWidth="1"
          stroke="black"
          strokeLinecap="round"
          strokeLinejoin="round"
          d="M12 18v-5.25m0 0a6.01 6.01 0 001.5-.189m-1.5.189a6.01 6.01 0 01-1.5-.189m3.75 7.478a12.06 12.06 0 01-4.5 0m3.75 2.383a14.406 14.406 0 01-3 0M14.25 18v-.192c0-.983.658-1.823 1.508-2.316a7.5 7.5 0 10-7.517 0c.85.493 1.509 1.333 1.509 2.316V18"
        />
      </svg>
